<?xml version="1.0" encoding="utf-8"?>
<!-- Generator: Adobe Illustrator 25.2.0, SVG Export Plug-In . SVG Version: 6.00 Build 0)  -->
<svg version="1.1" id="Layer_1" xmlns="http://www.w3.org/2000/svg" xmlns:xlink="http://www.w3.org/1999/xlink" x="0px" y="0px"
	 viewBox="0 0 1920 1080" style="enable-background:new 0 0 1920 1080;" xml:space="preserve">
<style type="text/css">
	.st0{opacity:0.85;}
	.st1{fill:#FFFFFF;}
	.st2{fill:none;}
	.st3{fill:#656A7A;}
	.st4{font-family:'MyriadPro-Regular';}
	.st5{font-size:11px;}
	.st6{letter-spacing:2;}
</style>
<g>
	<g>
		<g>
		</g>
	</g>
	<g>
		<g>
			<g>
				<g>
					<g>
						<g class="st0">
							<g>
								<path class="st1" d="M380.64,273.2c-0.56-0.97-1.09-1.96-1.68-2.93l-1.8-2.86c0.56,0.99,1.07,1.99,1.55,3.05
									C379.37,271.78,379.92,272.34,380.64,273.2z"/>
								<path class="st1" d="M373.63,262.25c-0.23-0.34-0.49-0.66-0.72-0.96c-0.25-0.27-0.49-0.52-0.7-0.75
									C372.69,261.1,373.19,261.66,373.63,262.25z"/>
								<path class="st1" d="M365.93,253.38c1.39,1.54,2.66,3.06,3.98,4.46C368.85,256.52,367.61,254.98,365.93,253.38z"/>
								<path class="st1" d="M371.79,260.65c-0.33-0.65-0.44-1.03,0.39-0.15c0.01,0.01,0.02,0.02,0.03,0.04
									c-0.76-0.89-1.51-1.78-2.3-2.7C370.67,258.86,371.29,259.82,371.79,260.65z"/>
								<path class="st1" d="M371.79,260.65c0.32,0.63,0.91,1.57,1.06,1.93C372.58,262,372.21,261.36,371.79,260.65z"/>
								<path class="st1" d="M367.35,260.48c-0.82-0.81,0.09-1.21-1.57-2.8c-3.73-3.84-7.26-6.75-11.04-9.96
									c-0.46-0.33-0.93-0.77-1.41-1.27c-0.48-0.5-0.99-1.02-1.51-1.55c-1.03-1.06-2.02-2.18-3.03-2.73
									c-1.14-0.7-2.69-1.73-4.39-2.62c-1.7-0.88-3.4-1.83-4.83-2.4c-2.82-1.22-4.16-1.63-0.71,0.32c1.32,0.7,2.53,1.46,3.69,2.19
									c1.17,0.73,2.31,1.41,3.36,2.16c1.06,0.73,2.11,1.42,3.11,2.14c0.98,0.74,1.95,1.46,2.9,2.18c0.98,0.7,1.86,1.49,2.79,2.24
									c0.91,0.77,1.86,1.51,2.74,2.35c0.9,0.82,1.81,1.66,2.74,2.51c0.89,0.9,1.81,1.83,2.75,2.78c0.81,0.74,1.54,1.55,2.29,2.34
									c0.74,0.8,1.52,1.56,2.23,2.38c1.4,1.65,2.88,3.24,4.19,4.98c2.76,3.37,5.17,7.04,7.55,10.91c1.19,2.24,2.26,4.36,3.14,6.58
									c-0.29-0.73-0.58-1.45-0.87-2.19c-0.33-0.72-0.66-1.45-1-2.19c-0.34-0.74-0.69-1.5-1.04-2.27
									c-0.37-0.76-0.79-1.52-1.19-2.31C376.15,270.03,372.09,265.92,367.35,260.48z"/>
								<path class="st1" d="M393.95,320.54c-0.19-1.15-0.59-3.47-0.59-3.47c0.22-5.24-0.84-10.7-2.44-15.92
									c0.03,0.81,0.05,1.63,0.08,2.47c0.4,1.51,0.59,2.36,0.72,2.47c0.11,0.12,0.16-0.51-0.04-1.88
									c0.72,6.35,1.31,12.29,1.64,18.41C393.57,322.21,393.89,322.28,393.95,320.54z"/>
								<path class="st1" d="M393.49,326.2c-0.06-1.2-0.11-2.41-0.17-3.59c-0.03,0.03-0.05,0.09-0.08,0.13
									c0.08,1.21,0.15,2.41,0.23,3.59C393.48,326.29,393.49,326.24,393.49,326.2z"/>
								<path class="st1" d="M346.57,237.93c-12.9-8.58-26.77-13.98-40.78-16.55c-1.11,0.01-1.89,0.03-3.33-0.25
									c-1.08-0.31-2.18-0.55-3.27-0.76c-2.07-0.29-4.15-0.38-6.2-0.58c-0.72-0.03-1.46,0-2.2,0c-0.01,0-0.04,0-0.06,0
									c-1.17,0.08-0.83,0.24-0.11,0.4c0.8,0.13,1.53,0.25,2.15,0.41c-0.39-0.11-1.45-0.25-2.15-0.41
									c-0.97-0.15-2.06-0.27-3.34-0.36c-1.89,0.1-3.87,0.17-5.92,0.2c2.27-0.2,4.23-0.23,5.92-0.2c1.2-0.01,2.35-0.03,3.51-0.04
									c0.33-0.02,0.67-0.04,1.02-0.06c-2.38-0.07-4.75-0.21-7.12-0.12c-1.18,0.03-2.37,0.01-3.55,0.08l-3.55,0.23
									c-1.09,0.09-2.12,0.24-2.95,0.39c-3.4,0.49-6.72,1.27-8.9,1.19c-0.82,0.18-1.66,0.36-2.49,0.54
									c0.16-0.01,0.33-0.02,0.5-0.03c-0.38,0.05-0.69,0.09-0.95,0.13c-0.87,0.2-1.75,0.37-2.62,0.59l-2.6,0.71
									c-0.87,0.24-1.74,0.45-2.6,0.73l-2.58,0.84c-2.17,0.87-4.3,2.04-6.48,3.03c0,0-0.41,0.08-0.9,0.2
									c-0.5,0.12-1.1,0.26-1.49,0.35c-0.79,0.64-2.02,1.3-3.43,2.13c1.85-0.63,3.61-1,5.16-1.51c1.18-0.29,2.34-0.95,3.57-1.65
									c0.61-0.34,1.25-0.68,1.91-0.94c0.68-0.23,1.38-0.38,2.12-0.4c-0.74,0.01-1.45,0.17-2.12,0.4c-0.67,0.26-1.3,0.6-1.91,0.94
									c-1.22,0.7-2.39,1.36-3.57,1.65c-1.56,0.51-3.31,0.88-5.16,1.51c-2.96,1.67-6.88,3.61-10.11,5.15
									c3.5-2.73,7.01-4.14,10.11-5.15c1.41-0.83,2.64-1.49,3.43-2.13c0.39-0.09,0.99-0.23,1.49-0.35c0.5-0.12,0.9-0.2,0.9-0.2
									c2.18-0.99,4.31-2.16,6.48-3.03c-6.7,2.21-13.25,5.11-19.59,8.74c-5.09,2.92-9.9,6.22-14.39,9.86
									c-4.49,3.65-8.61,7.68-12.42,11.96c-7.65,8.54-13.72,18.34-18.29,28.83c-8.96,21.06-11.27,45.29-5.42,69.18
									c6.44,25.89,22.13,48.17,42.69,62.99c10.27,7.38,21.65,12.83,33.52,16.06c5.93,1.62,11.97,2.73,18.04,3.36
									c6.08,0.62,12.18,0.66,18.26,0.3c1.52-0.13,3.05-0.17,4.56-0.37l4.55-0.55l4.52-0.77c1.51-0.24,3-0.63,4.5-0.94
									c5.98-1.37,11.88-3.22,17.65-5.53c11.52-4.68,22.47-11.25,32.48-19.64c3.84-3.22,8.14-7.57,12.31-12.72
									c4.17-5.15,8.13-11.15,11.42-17.48c3.3-6.33,5.92-12.98,7.79-19.24c1.91-6.26,2.93-12.16,3.61-16.94
									c0.11-1.62,0.19-3.09,0.23-4.41c-0.02-1.33-0.05-2.51-0.1-3.57c-0.07-2.11-0.37-3.7-0.64-4.87
									c-0.56-2.35-1.21-3.03-1.84-2.9c-1.26,0.28-2.44,3.74-2.57,4.3c-0.46,1.87-1.04,3.66-1.44,5.44
									c-0.41,1.78-0.93,3.52-1.31,5.31c-0.4,1.78-0.92,3.58-1.33,5.46c-0.5,1.86-1.02,3.8-1.56,5.85
									c-1.22,4.07-2.68,8.57-4.95,13.61c-2.31,5.01-5.39,10.6-9.91,16.52c3.02-4.07,3.96-5.4,3.81-4.61
									c-0.16,0.78-1.6,3.57-4.04,7.21c-2.4,3.66-5.99,8.04-10.07,12.06c-4.09,4.01-8.7,7.64-12.88,10.03
									c-6.02,3.48-12.66,7.12-20.02,10.21c-7.34,3.09-15.33,5.83-23.81,7.43c-1.06,0.2-2.12,0.4-3.18,0.6
									c-1.07,0.15-2.15,0.3-3.23,0.45c-2.15,0.36-4.34,0.46-6.52,0.68c-4.37,0.25-8.79,0.35-13.17,0.02
									c-4.39-0.22-8.72-0.91-12.97-1.72c-1.05-0.25-2.1-0.5-3.15-0.75l-1.56-0.38l-1.54-0.46c-1.02-0.31-2.04-0.62-3.05-0.92
									c-1-0.34-1.98-0.72-2.97-1.08c-7.84-2.9-15.97-6.66-24.21-12.36c-20.97-15.22-35.66-37.25-41.07-61.93
									c-2.7-12.32-3.14-25.29-1.05-38.1c2.1-12.8,6.82-25.47,14.22-36.92c7.78-12.15,16.39-21.85,26.19-29.38
									c7.23-5.44,16.18-9.27,22.98-11.83c5.38-2,10.52-3.49,15.48-4.67c4.98-1.12,9.79-1.88,14.53-2.39
									c-10.62,0.92-18.3,2.59-29.4,6.61c-3.65,1.48-2.51,0.67,0.2-0.73c1.38-0.63,3.13-1.47,4.89-2.16
									c1.77-0.65,3.49-1.33,4.77-1.69c1.08-0.36,2.55-0.48,4.01-0.6c1.46-0.09,2.93-0.1,4.02-0.42c1.2-0.24,2.39-0.42,3.57-0.61
									c1.18-0.18,2.35-0.43,3.53-0.61c2.38-0.31,4.81-0.74,7.46-0.88c2.27-0.26,2.01,0.67,3.14,0.59
									c7.15-0.2,12.86-0.67,17.4,0.37c1.72,0.38,3.35,0.73,4.91,1.2c1.56,0.45,3.07,0.82,4.53,1.35c1.86,0.58,3.72,1.13,5.67,1.79
									c1.23,0.35,2.53,0.65,3.78,1.09c-0.87-0.67-1.11-1.13-1.32-1.58c0.91,0.32,1.95,0.85,3.01,1.33
									c1.05,0.5,2.12,0.95,2.98,1.39c-0.86-0.44-1.93-0.89-2.98-1.39c-1.06-0.48-2.1-1-3.01-1.33c0.22,0.45,0.45,0.91,1.32,1.58
									c4.57,1.38,9.34,3.37,14.07,5.67c4.74,2.29,9.3,5.15,13.54,8.14c-0.02-0.05-0.04-0.11-0.06-0.15
									c-4.87-3.62-9.76-6.9-15.08-10.38c1.18,0.71,1.63,1.12,1.47,1.14c-0.16,0.01-0.96-0.32-2.36-1
									c-0.64-0.51-1.28-1.02-1.91-1.52c5,2.12,9.84,4.75,13.69,8.22c0,0,2.02,1.17,3.02,1.75c1.29,1.15,1.03,1.35,1.16,1.77
									c0.94,0.71,1.9,1.44,2.86,2.16c-0.84-0.96-2.71-2.84-4.46-4.38c-0.89-0.76-1.72-1.46-2.32-1.98
									C346.97,238.24,346.57,237.93,346.57,237.93z"/>
								<path class="st1" d="M287.14,219.81c0.84,0,1.86,0,2.96,0l-2.98-0.1l-2.98,0.04c-0.99,0.03-1.99,0-2.98,0.07l-2.98,0.19
									c1.07,0.16,2.45,0.11,4,0.05C283.72,220.02,285.43,219.91,287.14,219.81z"/>
							</g>
						</g>
					</g>
				</g>
			</g>
		</g>
	</g>
	<g>
		<g>
			<path class="st1" d="M226.98,395.04l0.48-0.56c1.07,0.69,1.22,0.52,1.57-0.31c0.24-0.58,0.59-1.48,0.88-2.28l-2.95-2.55
				c-0.57,0.33-1.28,0.72-1.84,1.06c-1.14,0.68-0.88,1.11,0.22,2.25l-0.48,0.56l-3.74-3.23l0.48-0.56c1.06,0.7,1.42,0.78,3.03-0.05
				l9.91-5.11l0.84,0.49c-1.31,3.47-2.6,7.05-3.8,10.43c-0.66,1.89-0.61,2.12,0.27,3.09l-0.48,0.56L226.98,395.04z M231.9,386.65
				c-1.38,0.71-2.68,1.36-4.01,2.14l2.41,2.08L231.9,386.65z"/>
			<path class="st1" d="M241.28,404.58c-0.45-0.19-2.12-0.99-3.71-1.48c0.21-0.32,0.41-0.64,0.63-0.97
				c-0.43,0.01-1.02-0.01-1.45-0.01c-0.57-0.01-0.85-0.12-1.04-0.24c-1.43-0.92-2.66-3.47-1.04-5.97c1.49-2.3,4.71-2.81,7.33-1.12
				c0.12,0.08,0.4,0.26,0.64,0.49l1.25-1.93c0.58-0.89,0.55-1.03-0.41-1.84l0.36-0.55c1.18,0.6,2.68,1.26,3.68,1.57
				c-0.42,0.65-0.8,1.24-1.27,1.96l-4.98,7.69c-0.59,0.91-0.54,1.06,0.04,1.55l0.34,0.29L241.28,404.58z M241.63,396.83
				c0.12-0.59-0.08-1.24-0.71-1.65c-0.52-0.34-1.87-0.71-3.45,1.72c-1.43,2.2-0.72,3.8,0.02,4.31c0.3,0.2,0.59,0.31,1.11,0.31
				L241.63,396.83z"/>
			<path class="st1" d="M247.3,408.16l-4.72-2.35l0.3-0.61c1,0.37,1.14,0.32,1.67-0.75l1.95-3.92c0.45-0.89,0.42-1.02-0.33-1.62
				l0.28-0.55c1.17,0.43,2.28,0.71,3.56,0.92c-0.29,0.59-0.68,1.36-0.96,1.93c1.42-0.83,2.39-1.18,3.13-0.81
				c0.66,0.33,0.94,1.03,0.63,1.65c-0.44,0.88-1.31,1.07-1.67,1.07c-0.3-0.02-0.44-0.2-0.51-0.37c-0.18-0.4-0.27-0.8-0.57-0.96
				c-0.27-0.13-0.83-0.12-1.49,0.4l-1.69,3.4c-0.53,1.07-0.44,1.19,0.75,1.96L247.3,408.16z"/>
			<path class="st1" d="M250.47,409.6l0.25-0.63c1.06,0.27,1.2,0.24,1.72-1.08l1.44-3.62c0.5-1.25,0.43-1.36-0.4-1.82l0.24-0.61
				c1.22,0.34,2.49,0.56,3.63,0.67c-0.31,0.78-0.61,1.54-0.92,2.3l-1.61,4.03c-0.5,1.26-0.48,1.42,0.55,1.98l-0.25,0.63
				L250.47,409.6z M256.48,400.84c-0.71-0.28-1.1-1.13-0.81-1.85c0.3-0.76,1.16-1.07,1.88-0.78c0.74,0.3,1.12,1.09,0.81,1.85
				C258.08,400.79,257.25,401.15,256.48,400.84z"/>
			<path class="st1" d="M263.01,414.19c-0.52-0.15-0.89-0.45-1.07-0.75c-0.2-0.31-0.26-0.62-0.29-0.86c-0.87,0.26-2,0.62-2.36,0.51
				c-1.65-0.49-2.23-2.06-1.88-3.25c0.3-1.02,0.9-1.34,2.03-1.44c1.26-0.09,2.91-0.1,3.46-0.35l0.25-0.84c0.29-1,0.1-1.66-0.73-1.91
				c-0.33-0.1-0.64-0.02-0.88,0.16c-0.32,0.24-0.51,0.6-0.83,1.13c-0.29,0.48-0.63,0.52-1.02,0.41c-0.5-0.15-1-0.8-0.84-1.33
				c0.1-0.35,0.41-0.53,0.94-0.7c1.03-0.32,2.33-0.54,3.47-0.45c0.77,0.23,1.37,0.59,1.81,1.14c0.65,0.82,0.65,1.69,0.36,2.67
				l-0.98,3.32c-0.27,0.92-0.03,1.24,0.27,1.33c0.19,0.06,0.4,0.06,0.64,0.02l0.02,0.71L263.01,414.19z M262.68,408.84
				c-0.4,0.09-0.8,0.18-1.25,0.28c-0.69,0.13-1.13,0.37-1.33,1.03c-0.32,1.07,0.32,1.68,0.74,1.8c0.27,0.08,0.54,0.14,0.93-0.06
				C262.04,410.99,262.41,409.74,262.68,408.84z"/>
			<path class="st1" d="M272.46,415.92l0.11-0.67c0.85,0.02,0.92-0.05,1.15-1.41l0.56-3.37c0.23-1.4-0.39-1.95-1.08-2.06
				c-0.51-0.08-0.98,0.04-1.58,0.35l-0.79,4.77c-0.2,1.2-0.13,1.3,0.66,1.55l-0.11,0.67l-4.58-0.76l0.11-0.67
				c1.05-0.01,1.18-0.01,1.39-1.29l0.68-4.1c0.2-1.18,0.05-1.27-0.79-1.59l0.1-0.63c1.17,0.05,2.57,0.02,3.73-0.15
				c-0.07,0.27-0.2,0.96-0.27,1.41c0.44-0.21,0.9-0.44,1.4-0.64c0.65-0.26,1.05-0.35,1.62-0.26c1.6,0.26,2.41,1.59,2.08,3.61
				l-0.62,3.73c-0.2,1.22-0.09,1.3,0.83,1.6l-0.11,0.67L272.46,415.92z"/>
			<path class="st1" d="M285.69,417.33c-0.54-0.02-0.97-0.22-1.22-0.47c-0.27-0.25-0.4-0.54-0.49-0.76
				c-0.78,0.47-1.79,1.09-2.17,1.07c-1.72-0.07-2.66-1.45-2.61-2.69c0.04-1.06,0.54-1.52,1.62-1.89c1.2-0.39,2.8-0.8,3.27-1.18
				l0.04-0.88c0.04-1.04-0.31-1.64-1.17-1.67c-0.34-0.01-0.63,0.13-0.82,0.37c-0.25,0.31-0.35,0.71-0.54,1.3
				c-0.16,0.53-0.49,0.66-0.89,0.64c-0.52-0.02-1.16-0.53-1.14-1.09c0.01-0.36,0.27-0.61,0.74-0.91c0.92-0.56,2.13-1.09,3.26-1.29
				c0.8,0.03,1.47,0.24,2.03,0.67c0.83,0.64,1.04,1.49,1,2.5l-0.15,3.46c-0.04,0.96,0.27,1.21,0.59,1.23
				c0.2,0.01,0.4-0.04,0.63-0.13l0.19,0.69L285.69,417.33z M284.07,412.22c-0.37,0.19-0.74,0.37-1.14,0.57
				c-0.63,0.29-1.01,0.64-1.04,1.32c-0.05,1.12,0.72,1.55,1.16,1.57c0.28,0.01,0.56,0,0.89-0.28
				C283.97,414.46,284.03,413.16,284.07,412.22z"/>
			<path class="st1" d="M298.35,407.36c0.03-0.35,0.81-7.18,2.71-7.48c0.46-0.07,1.58-0.15,1.72,0.76c0.14,0.89,0.28,5.47,0.45,6.65
				c-0.05-0.7,0.59-4.97,2.05-5.21c0.83-0.13,1.59,0.17,1.67,0.73c0.09,0.55-0.29,2.68,0.17,5.52c0.45,2.85,1.62,7.14,2.35,7.02
				c0.71-0.11,0.45-2.5,0.62-2.71c0.02-0.02,0.02-0.02,0.04-0.03c0.14-0.02,0.36,0.59,0.48,1.36c0.17,1.11,0.15,2.51-0.58,2.62
				c-3.36,0.53-4.58-4.01-5.27-8.34c-0.44-2.79-0.18-4.08-0.22-4.32c0-0.02-0.01-0.04-0.03-0.04c-0.4,0.06-1.13,5.55-0.82,7.5
				c0.12,0.73,0.34,1.28,0.44,1.88c0.03,0.22-0.11,0.34-0.33,0.38c-0.38,0.06-0.99-0.13-1.5-0.49c-0.44-0.32-0.75-1.38-0.96-2.76
				c-0.48-3.02-0.54-7.49-0.73-8.72c-0.03-0.22-0.07-0.33-0.11-0.33c-0.69,0.11-2.25,9.94-1.59,14.11l0.03,0.2
				c0.11,0.69,0.16,0.99-0.24,1.05c-0.43,0.07-1.94-0.38-2.02-0.88c-0.09-0.55,0.15-2.35,0.16-4.89c-0.08,0.03-0.16,0.04-0.25,0.06
				c-1.88,0.3-3.58-1.26-3.94-3.53c-0.57-3.6,1.21-5.28,2.42-5.47C296.2,401.85,297.52,402.15,298.35,407.36z M296.83,410.2
				c-0.03-1.45-0.12-3.08-0.4-4.86c-0.15-0.93-0.5-2.64-1.25-2.52c-0.75,0.12-1.31,2.37-0.89,5.02c0.35,2.21,1.53,2.63,2.18,2.53
				C296.58,410.36,296.7,410.26,296.83,410.2z"/>
			<path class="st1" d="M314.03,409.27c0.11,1.91,0.12,4.17-0.49,4.36c-1.7,0.53-2.73-0.56-3.19-2.07c-1.73-5.6-0.34-7.47,1.15-7.93
				c0.4-0.12,0.86-0.14,1.28,0.15c0.07-0.38,0.23-0.61,0.48-0.69c0.52-0.16,1.57,0.27,1.68,0.61c0.09,0.29,0.74,3.75,1.26,5.43
				c0.44,1.41,1.05,1.91,1.36,1.82c0.46-0.14,0.57-1.89,0.3-3.5c-0.02-0.06,0.05-0.12,0.14-0.15c0.21-0.06,0.6-0.02,0.67,0.21
				c0.21,0.69,0.77,4.74-0.81,5.23C316.64,413.11,315.19,411.87,314.03,409.27z M312.44,411.38c0.31,0.99,0.54,1.26,0.78,1.18
				c0.44-0.14,0.23-3.46,0.04-5.41c-0.25-0.82-0.42-1.57-0.49-2.19c-0.21-0.35-0.44-0.62-0.71-0.53
				C311.15,404.7,311.52,408.4,312.44,411.38z"/>
			<path class="st1" d="M320.54,407.72c-0.6-1.48-1.21-4.04-1.4-4.52c-0.17-0.41-0.91-0.43-1.68-0.42c0.99,2.66,1.51,4.61,1.51,4.61
				s0.03,0.07-0.06,0.11c-0.24,0.05-0.7,0.03-0.79-0.2l-0.01-0.04c0,0-0.43-1.75-1.5-4.48c-0.65,0-1.18-0.08-1.33-0.45
				c-0.15-0.37,0.3-0.86,0.78-1.05c0.37-0.15,0.76-0.14,0.91,0.23l0.23,0.56c1.34-0.05,3.72-0.26,4.07,0.61
				c0.26,0.63,1.25,4.2,1.66,5.2c0.38,0.93,0.7,1.18,0.94,1.09c1.11-0.45,0.01-4.21-0.11-4.64c-0.05-0.17-0.02-0.25,0.08-0.29
				c0.2-0.08,0.67,0.16,0.82,0.53l0.02,0.04c0.46,1.39,1.15,4.54-0.64,5.27C322.14,410.64,321.14,409.19,320.54,407.72z"/>
			<path class="st1" d="M323.94,404.5c-1.64-3.31-0.71-5.43,0.98-6.26c1.02-0.51,2-0.34,2.4,0.46c0.56,1.13,0.56,2.89,0.02,3.16
				c-0.12,0.06-0.22,0-0.27-0.09c-0.02-0.04-0.04-0.09-0.02-0.13c0.08-0.29,0.04-1.18-0.5-2.27c-0.25-0.5-0.67-0.81-0.94-0.67
				c-0.57,0.28-1.42,2,0.17,5.21c0.85,1.72,2.34,2.48,3.49,1.91c1.67-0.83,0.74-3.69,0.51-4.33c-0.06-0.17-0.04-0.27,0.05-0.31
				c0.2-0.1,0.68,0.11,0.86,0.47l0.02,0.04c0.53,1.39,1.31,4.48-0.91,5.59C327.56,408.34,325.2,407.04,323.94,404.5z"/>
			<path class="st1" d="M326.26,392.59c0.09-0.33,0.5-0.82,0.76-0.97c0.61-0.35,1.22-0.08,1.54,0.48c0.06,0.1,0.06,0.22,0.04,0.3
				c-0.11,0.41,0.47,1.62-0.29,2.06c-0.33,0.19-1.29,0.12-1.77-0.71C326.2,393.18,326.17,392.92,326.26,392.59z M334.13,404.31
				c-0.28,0.16-1.15,0.2-1.92-0.01c-0.63-0.17-1.61-1.52-2.46-3c-0.98-1.7-1.77-3.57-1.65-3.96c0.06-0.17,0.21-0.33,0.38-0.42
				c0.33-0.19,0.82-0.26,1.2-0.16c0.25,0.07,0.45,0.23,0.65,0.57c0.14,0.24,0.06,0.38,0.06,0.38s1.1,2.6,2,4.18
				c0.44,0.76,0.84,1.3,1.04,1.18c0.99-0.57,0.22-2.5-0.07-3.21c-0.03-0.05,0.02-0.13,0.11-0.18c0.19-0.11,0.58-0.15,0.7,0.06
				c0.13,0.23,0.43,0.83,0.61,1.59C335.08,402.56,334.87,403.88,334.13,404.31z"/>
			<path class="st1" d="M337.37,397.98c0.66,1.8,1.31,3.96,0.78,4.32c-1.48,0.99-2.77,0.25-3.65-1.06
				c-3.27-4.86-2.48-7.06-1.18-7.93c0.35-0.23,0.78-0.38,1.27-0.23c-0.04-0.38,0.04-0.65,0.26-0.8c0.45-0.3,1.58-0.19,1.78,0.1
				c0.17,0.25,1.79,3.38,2.77,4.84c0.83,1.23,1.56,1.53,1.82,1.35c0.4-0.27,0-1.97-0.72-3.44c-0.03-0.05,0.01-0.13,0.09-0.18
				c0.18-0.12,0.57-0.19,0.7,0.01c0.4,0.6,2.11,4.32,0.73,5.24C340.98,400.91,339.23,400.13,337.37,397.98z M336.46,400.45
				c0.58,0.86,0.88,1.05,1.09,0.91c0.38-0.26-0.78-3.38-1.52-5.2c-0.48-0.71-0.85-1.38-1.1-1.96c-0.31-0.28-0.6-0.46-0.83-0.31
				C333.3,394.43,334.71,397.86,336.46,400.45z"/>
			<path class="st1" d="M343.47,397.3c-0.81-0.1-2.39-1.86-3.78-3.62c-2.12-2.71-4.62-6.85-4.53-7.5c0.03-0.25,0.14-0.44,0.31-0.57
				c0.54-0.42,1.57-0.29,1.77-0.04c0.26,0.33,0.97,3.28,5.04,8.48c1.52,1.94,2.18,1.85,2.39,1.69c0.38-0.3,0.01-1.94-0.82-3.35
				c-0.04-0.05,0-0.13,0.08-0.19c0.17-0.14,0.56-0.23,0.7-0.04c0.44,0.57,2.34,3.7,1.03,4.73
				C345.14,397.29,344.29,397.42,343.47,397.3z"/>
		</g>
	</g>
	<g>
		<g>
			<path class="st1" d="M292.61,362.93v-6.26c10.65-1.52,10.65-3.38,8.29-10.65c-1.69-5.07-4.4-12.68-6.93-19.45h-32.98
				c-1.86,5.24-4.23,11.67-5.92,16.91c-3.55,10.65,0.51,12.01,13.87,13.19v6.26h-41.77v-6.26c10.65-1.35,13.36-2.88,19.11-17.08
				l35.18-87.43l8.12-1.52c10.82,29.43,22.32,59.53,33.31,87.77c6.26,15.73,7.78,16.91,18.77,18.26v6.26H292.61z M277.73,282.09
				c-4.9,12.18-9.64,23.51-13.87,35.85h26.89L277.73,282.09z"/>
		</g>
	</g>
	<path class="st1" d="M299.23,347.28c0.01,0.01,0.02,0.02,0.03,0.03c-0.02,0-0.03,0-0.05,0
		C299.22,347.3,299.23,347.29,299.23,347.28z"/>
	<g>
		<path class="st1" d="M272.88,328.9c-6.91,0.73-13.04,4.12-17.31,9.52c0.43-3.82,0.85-7.64,1.28-11.46
			c0.07-0.02,0.12-0.05,0.18-0.09c5.63,1.09,17.31-2.16,18.45-8.45c0.06-0.35-0.25-0.77-0.62-0.77c-6.65-0.02-12.82,2.28-17.72,6.68
			c0.39-3.5,0.78-7,1.17-10.5c0.05-0.08,0.09-0.17,0.11-0.26c6.07-0.76,11.56-3.4,15.92-7.72c0.44-0.44,0.27-1.12-0.36-1.24
			c-4.17-0.79-8.21-0.06-11.9,2.03c-0.76,0.43-2.1,1.36-3.25,2.49c0.34-3.06,0.68-6.12,1.02-9.18c6.37-1.99,11.83-5.78,15.96-11.03
			c0.42-0.53-0.1-1.13-0.67-1.11c-5.94,0.26-11.76,2.73-14.8,7.71c0.27-2.42,0.54-4.85,0.81-7.27c0.18-0.05,0.35-0.17,0.45-0.38
			c3.09-6.42,4.14-13.28,3.14-20.33c-0.09-0.61-0.89-0.79-1.25-0.31c-3.02,4.01-4.63,8.47-4.98,13.47c-0.1,1.52-0.46,6.3,1.26,7.36
			c-0.26,2.38-0.53,4.76-0.79,7.14c-0.72-2.47-1.67-4.86-2.89-7.17c-1.16-2.18-3.09-6.15-5.54-7.02c-0.52-0.18-1,0.22-0.95,0.76
			c0.36,3.85,1.18,7.64,2.78,11.18c1.29,2.85,3.75,5,6.07,7.02c-0.42,3.75-0.83,7.5-1.25,11.24c-0.04,0.08-0.08,0.16-0.12,0.25
			c-1.05-5.94-3.16-11.55-8.06-15.39c-0.39-0.3-1.11-0.06-1.11,0.48c0.01,7.16,4.09,12.72,8.37,18.1c0.15,0.18,0.33,0.26,0.51,0.26
			c-0.27,2.44-0.54,4.89-0.82,7.33c-1.79-5.12-4.88-9.56-9.14-13.06c-0.43-0.35-1.03-0.01-1.11,0.48
			c-1.05,6.43,3.15,15.22,9.76,17.07c-0.41,3.65-0.81,7.29-1.22,10.94c-1.22-6.44-5.55-11.76-10.4-16.07
			c-0.41-0.36-1.06-0.01-1.11,0.48c-0.93,7.98,4.92,13.55,10.53,18.25c0.08,0.13,0.21,0.21,0.35,0.24c0.1,0.04,0.2,0.06,0.3,0.05
			c-0.34,3.09-0.69,6.17-1.03,9.26c-1.86-5.16-6.36-8.77-12.05-9.44c-0.55-0.06-0.9,0.49-0.72,0.98
			c2.19,5.76,6.59,10.22,12.31,12.52c-0.17,1.57-0.35,3.13-0.52,4.7c-0.1,0.9,1.29,1.05,1.39,0.15c0.18-1.58,0.35-3.15,0.53-4.73
			c6.05-1,11.29-4.37,14.68-9.48c0.29-0.43,0.07-1.06-0.48-1.11c-5.63-0.6-10.76,1.88-13.73,6.4c0.34-3.04,0.68-6.07,1.01-9.11
			c7.51-0.83,15.07-3.53,18.33-10.91C273.87,329.33,273.39,328.84,272.88,328.9z"/>
		<path class="st1" d="M308.51,297.72c-0.25,5.28-1.78,10.28-4.52,14.79c0.35-2.46,0.82-4.91,1.44-7.32
			c0.06-0.25-0.33-0.34-0.39-0.09c-0.6,2.33-1.05,4.69-1.4,7.07C302.3,306.78,304.65,301.61,308.51,297.72z"/>
		<path class="st1" d="M291.08,297.43c-1.64-2.7-2.46-5.8-2.75-8.93c3.91,4.1,6.6,8.9,8.1,14.36c-0.84-1.31-1.63-2.64-2.35-4.02
			c-0.12-0.23-0.46-0.01-0.34,0.21c0.85,1.65,1.79,3.25,2.83,4.79c0.04,0.05,0.09,0.08,0.14,0.09c0,0.01,0,0.02,0.01,0.03
			c-0.04,0.02-0.07,0.03-0.11,0.06C296.16,304.42,291.48,298.09,291.08,297.43z"/>
		<path class="st1" d="M293.89,312.06c-2.58-1.32-4.87-3.26-6.93-5.32c2.37,0.13,5.78,1.84,7.34,2.52c2.71,1.19,5.18,2.85,7.46,4.72
			c-0.04,0-0.08-0.01-0.13-0.01c-1.69-0.7-3.32-1.52-4.89-2.47c-0.22-0.13-0.41,0.22-0.19,0.35c1.24,0.75,2.51,1.41,3.82,2.01
			C298.14,313.61,296,313.14,293.89,312.06z"/>
		<path class="st1" d="M327.18,320.85c1.4,4.54-4.04,12.11-8.02,14.81c1.42-2.24,2.84-4.47,4.26-6.71c0.14-0.22-0.22-0.4-0.35-0.19
			c-1.44,2.26-2.87,4.52-4.31,6.78C319.78,329.77,322.66,324.67,327.18,320.85z"/>
		<path class="st1" d="M311,320.69c0.3-1.45,0.95-2.8,1.66-4.09c1.18-2.17,3.01-3.89,5.08-5.19c-0.88,5-3.1,9.48-6.54,13.21
			c0.78-2.35,1.87-4.56,3.28-6.61c0.15-0.21-0.21-0.4-0.35-0.19c-1.39,2.03-2.47,4.21-3.26,6.52
			C310.94,323.01,310.88,321.28,311,320.69z"/>
		<path class="st1" d="M306.79,325.03c-1.16-0.62-2.33-1.23-3.48-1.86c-0.23-0.12-0.41,0.23-0.19,0.35c1.7,0.94,3.42,1.85,5.15,2.76
			c0.02,0.02,0.04,0.03,0.05,0.05c-4.91-1.23-9.74-2.87-13.29-6.57C299.5,320.14,303.34,322.26,306.79,325.03z"/>
		<path class="st1" d="M301.22,331.39c5.59,0.34,10.82,2.27,15.3,5.71c0.02,0.02,0.05,0.02,0.08,0.04
			c-2.71-0.51-6.03-1.23-8.07-3.03c-0.19-0.17-0.46,0.12-0.27,0.3c1.92,1.69,4.97,2.48,7.6,2.99
			C310.77,338.75,304.28,335.55,301.22,331.39z"/>
		<path class="st1" d="M306.69,343c5.63,0.46,11.29,1.91,15.63,5.54c-2.08-0.56-4.06-1.37-5.92-2.45c-0.22-0.13-0.41,0.23-0.19,0.35
			c1.8,1.04,3.71,1.83,5.71,2.39C316.23,348.57,310.32,347.64,306.69,343z"/>
		<path class="st1" d="M316.47,358.71c4.5-2.28,9.62-1.84,13.65,1.14c-1.8-0.2-3.56-0.62-5.26-1.27c-0.24-0.09-0.43,0.26-0.19,0.35
			c1.95,0.74,3.96,1.18,6.03,1.36c0.03,0.03,0.06,0.05,0.09,0.08C325.91,361.6,320.92,361.01,316.47,358.71z"/>
		<path class="st1" d="M337.51,345.5c0.13,4.82-1.39,9.4-4.37,13.18c0.39-2.12,0.56-4.26,0.5-6.43c-0.01-0.26-0.41-0.25-0.4,0.01
			c0.07,2.22-0.12,4.41-0.54,6.59C331.53,353.73,333.35,348.69,337.51,345.5z"/>
		<path class="st1" d="M326.73,346.77c1.37-1.55,2.38-3.11,3.02-4.62c0.07-0.16-0.28-0.06-0.34,0.1c-0.62,1.49-1.64,3.03-3,4.56
			c1.49-3.71,4.63-7.64,9.03-11.28C334.92,339.07,331.14,343.1,326.73,346.77z"/>
	</g>
	<rect x="212.03" y="343.01" class="st2" width="12.16" height="0.43"/>
	<text transform="matrix(1 0 0 1 241.2097 380.7863)" class="st3 st4 st5 st6">UX DESIGNER</text>
</g>
</svg>
