<?xml version="1.0" encoding="utf-8"?>
<!-- Generator: Adobe Illustrator 25.2.0, SVG Export Plug-In . SVG Version: 6.00 Build 0)  -->
<svg version="1.1" id="Layer_1" xmlns="http://www.w3.org/2000/svg" xmlns:xlink="http://www.w3.org/1999/xlink" x="0px" y="0px"
	 viewBox="0 0 237 232" style="enable-background:new 0 0 237 232;" xml:space="preserve">
<style type="text/css">
	.st0{opacity:0.85;}
	.st1{fill:#FFFFFF;}
	.st2{fill:none;}
	.st3{fill:#8B8F9E;}
	.st4{font-family:'Tahoma-Bold';}
	.st5{font-size:11px;}
	.st6{letter-spacing:1;}
</style>
<g>
	<g>
		<g>
			<g>
				<g>
					<g>
						<g class="st0">
							<g>
								<path class="st1" d="M210.4,59.6c-0.6-1-1.1-2-1.7-2.9l-1.8-2.9c0.6,1,1.1,2,1.5,3C209.1,58.2,209.7,58.8,210.4,59.6z"/>
								<path class="st1" d="M203.4,48.7c-0.2-0.3-0.5-0.7-0.7-1c-0.2-0.3-0.5-0.5-0.7-0.8C202.4,47.5,202.9,48.1,203.4,48.7z"/>
								<path class="st1" d="M195.7,39.8c1.4,1.5,2.7,3.1,4,4.5C198.6,43,197.4,41.4,195.7,39.8z"/>
								<path class="st1" d="M201.5,47.1c-0.3-0.6-0.4-1,0.4-0.1c0,0,0,0,0,0c-0.8-0.9-1.5-1.8-2.3-2.7
									C200.4,45.3,201,46.3,201.5,47.1z"/>
								<path class="st1" d="M201.5,47.1c0.3,0.6,0.9,1.6,1.1,1.9C202.3,48.4,202,47.8,201.5,47.1z"/>
								<path class="st1" d="M197.1,46.9c-0.8-0.8,0.1-1.2-1.6-2.8c-3.7-3.8-7.3-6.8-11-10c-0.5-0.3-0.9-0.8-1.4-1.3s-1-1-1.5-1.5
									c-1-1.1-2-2.2-3-2.7c-1.1-0.7-2.7-1.7-4.4-2.6c-1.7-0.9-3.4-1.8-4.8-2.4c-2.8-1.2-4.2-1.6-0.7,0.3c1.3,0.7,2.5,1.5,3.7,2.2
									c1.2,0.7,2.3,1.4,3.4,2.2c1.1,0.7,2.1,1.4,3.1,2.1c1,0.7,2,1.5,2.9,2.2c1,0.7,1.9,1.5,2.8,2.2c0.9,0.8,1.9,1.5,2.7,2.4
									c0.9,0.8,1.8,1.7,2.7,2.5c0.9,0.9,1.8,1.8,2.8,2.8c0.8,0.7,1.5,1.5,2.3,2.3c0.7,0.8,1.5,1.6,2.2,2.4c1.4,1.6,2.9,3.2,4.2,5
									c2.8,3.4,5.2,7,7.5,10.9c1.2,2.2,2.3,4.4,3.1,6.6c-0.3-0.7-0.6-1.5-0.9-2.2c-0.3-0.7-0.7-1.5-1-2.2s-0.7-1.5-1-2.3
									c-0.4-0.8-0.8-1.5-1.2-2.3C205.9,56.5,201.8,52.4,197.1,46.9z"/>
								<path class="st1" d="M223.7,107c-0.2-1.1-0.6-3.5-0.6-3.5c0.2-5.2-0.8-10.7-2.4-15.9c0,0.8,0,1.6,0.1,2.5
									c0.4,1.5,0.6,2.4,0.7,2.5c0.1,0.1,0.2-0.5,0-1.9c0.7,6.4,1.3,12.3,1.6,18.4C223.3,108.6,223.6,108.7,223.7,107z"/>
								<path class="st1" d="M223.2,112.6c-0.1-1.2-0.1-2.4-0.2-3.6c0,0,0,0.1-0.1,0.1c0.1,1.2,0.1,2.4,0.2,3.6
									C223.2,112.7,223.2,112.7,223.2,112.6z"/>
								<path class="st1" d="M176.3,24.4c-12.9-8.6-26.8-14-40.8-16.5c-1.1,0-1.9,0-3.3-0.2c-1.1-0.3-2.2-0.5-3.3-0.8
									c-2.1-0.3-4.1-0.4-6.2-0.6c-0.7,0-1.5,0-2.2,0c0,0,0,0-0.1,0c-1.2,0.1-0.8,0.2-0.1,0.4c0.8,0.1,1.5,0.2,2.1,0.4
									c-0.4-0.1-1.5-0.2-2.1-0.4c-1-0.1-2.1-0.3-3.3-0.4c-1.9,0.1-3.9,0.2-5.9,0.2c2.3-0.2,4.2-0.2,5.9-0.2c1.2,0,2.4,0,3.5,0
									c0.3,0,0.7,0,1-0.1c-2.4-0.1-4.8-0.2-7.1-0.1c-1.2,0-2.4,0-3.5,0.1l-3.5,0.2c-1.1,0.1-2.1,0.2-3,0.4
									C101,7.2,97.7,8,95.5,7.9c-0.8,0.2-1.7,0.4-2.5,0.5c0.2,0,0.3,0,0.5,0c-0.4,0-0.7,0.1-1,0.1c-0.9,0.2-1.8,0.4-2.6,0.6
									l-2.6,0.7c-0.9,0.2-1.7,0.5-2.6,0.7l-2.6,0.8c-2.2,0.9-4.3,2-6.5,3c0,0-0.4,0.1-0.9,0.2c-0.5,0.1-1.1,0.3-1.5,0.4
									c-0.8,0.6-2,1.3-3.4,2.1c1.9-0.6,3.6-1,5.2-1.5c1.2-0.3,2.3-1,3.6-1.6c0.6-0.3,1.2-0.7,1.9-0.9c0.7-0.2,1.4-0.4,2.1-0.4
									c-0.7,0-1.4,0.2-2.1,0.4c-0.7,0.3-1.3,0.6-1.9,0.9c-1.2,0.7-2.4,1.4-3.6,1.6c-1.6,0.5-3.3,0.9-5.2,1.5
									c-3,1.7-6.9,3.6-10.1,5.1c3.5-2.7,7-4.1,10.1-5.1c1.4-0.8,2.6-1.5,3.4-2.1c0.4-0.1,1-0.2,1.5-0.4s0.9-0.2,0.9-0.2
									c2.2-1,4.3-2.2,6.5-3c-6.7,2.2-13.2,5.1-19.6,8.7c-5.1,2.9-9.9,6.2-14.4,9.9c-4.5,3.6-8.6,7.7-12.4,12
									C28.1,50.5,22,60.3,17.5,70.8C8.5,91.9,6.2,116.1,12,140c6.4,25.9,22.1,48.2,42.7,63c10.3,7.4,21.6,12.8,33.5,16.1
									c5.9,1.6,12,2.7,18,3.4c6.1,0.6,12.2,0.7,18.3,0.3c1.5-0.1,3-0.2,4.6-0.4l4.5-0.5l4.5-0.8c1.5-0.2,3-0.6,4.5-0.9
									c6-1.4,11.9-3.2,17.6-5.5c11.5-4.7,22.5-11.2,32.5-19.6c3.8-3.2,8.1-7.6,12.3-12.7c4.2-5.1,8.1-11.1,11.4-17.5
									c3.3-6.3,5.9-13,7.8-19.2c1.9-6.3,2.9-12.2,3.6-16.9c0.1-1.6,0.2-3.1,0.2-4.4c0-1.3,0-2.5-0.1-3.6c-0.1-2.1-0.4-3.7-0.6-4.9
									c-0.6-2.4-1.2-3-1.8-2.9c-1.3,0.3-2.4,3.7-2.6,4.3c-0.5,1.9-1,3.7-1.4,5.4c-0.4,1.8-0.9,3.5-1.3,5.3
									c-0.4,1.8-0.9,3.6-1.3,5.5c-0.5,1.9-1,3.8-1.6,5.9c-1.2,4.1-2.7,8.6-5,13.6c-2.3,5-5.4,10.6-9.9,16.5c3-4.1,4-5.4,3.8-4.6
									c-0.2,0.8-1.6,3.6-4,7.2c-2.4,3.7-6,8-10.1,12.1c-4.1,4-8.7,7.6-12.9,10c-6,3.5-12.7,7.1-20,10.2
									c-7.3,3.1-15.3,5.8-23.8,7.4c-1.1,0.2-2.1,0.4-3.2,0.6c-1.1,0.2-2.1,0.3-3.2,0.5c-2.1,0.4-4.3,0.5-6.5,0.7
									c-4.4,0.2-8.8,0.3-13.2,0c-4.4-0.2-8.7-0.9-13-1.7c-1-0.2-2.1-0.5-3.1-0.8l-1.6-0.4l-1.5-0.5c-1-0.3-2-0.6-3-0.9
									c-1-0.3-2-0.7-3-1.1c-7.8-2.9-16-6.7-24.2-12.4c-21-15.2-35.7-37.2-41.1-61.9c-2.7-12.3-3.1-25.3-1.1-38.1
									c2.1-12.8,6.8-25.5,14.2-36.9c7.8-12.1,16.4-21.9,26.2-29.4c7.2-5.4,16.2-9.3,23-11.8c5.4-2,10.5-3.5,15.5-4.7
									c5-1.1,9.8-1.9,14.5-2.4c-10.6,0.9-18.3,2.6-29.4,6.6c-3.6,1.5-2.5,0.7,0.2-0.7c1.4-0.6,3.1-1.5,4.9-2.2
									c1.8-0.6,3.5-1.3,4.8-1.7c1.1-0.4,2.5-0.5,4-0.6c1.5-0.1,2.9-0.1,4-0.4c1.2-0.2,2.4-0.4,3.6-0.6c1.2-0.2,2.4-0.4,3.5-0.6
									c2.4-0.3,4.8-0.7,7.5-0.9c2.3-0.3,2,0.7,3.1,0.6c7.1-0.2,12.9-0.7,17.4,0.4c1.7,0.4,3.4,0.7,4.9,1.2
									c1.6,0.5,3.1,0.8,4.5,1.4c1.9,0.6,3.7,1.1,5.7,1.8c1.2,0.4,2.5,0.6,3.8,1.1c-0.9-0.7-1.1-1.1-1.3-1.6c0.9,0.3,2,0.9,3,1.3
									c1,0.5,2.1,1,3,1.4c-0.9-0.4-1.9-0.9-3-1.4c-1.1-0.5-2.1-1-3-1.3c0.2,0.5,0.5,0.9,1.3,1.6c4.6,1.4,9.3,3.4,14.1,5.7
									c4.7,2.3,9.3,5.1,13.5,8.1c0,0,0-0.1-0.1-0.1c-4.9-3.6-9.8-6.9-15.1-10.4c1.2,0.7,1.6,1.1,1.5,1.1c-0.2,0-1-0.3-2.4-1
									c-0.6-0.5-1.3-1-1.9-1.5c5,2.1,9.8,4.8,13.7,8.2c0,0,2,1.2,3,1.8c1.3,1.1,1,1.4,1.2,1.8c0.9,0.7,1.9,1.4,2.9,2.2
									c-0.8-1-2.7-2.8-4.5-4.4c-0.9-0.8-1.7-1.5-2.3-2C176.7,24.7,176.3,24.4,176.3,24.4z"/>
								<path class="st1" d="M116.9,6.2c0.8,0,1.9,0,3,0l-3-0.1l-3,0c-1,0-2,0-3,0.1l-3,0.2c1.1,0.2,2.5,0.1,4,0
									C113.5,6.5,115.2,6.3,116.9,6.2z"/>
							</g>
						</g>
					</g>
				</g>
			</g>
		</g>
	</g>
	<g>
		<g>
			<path class="st1" d="M56.7,181.5l0.5-0.6c1.1,0.7,1.2,0.5,1.6-0.3c0.2-0.6,0.6-1.5,0.9-2.3l-2.9-2.5c-0.6,0.3-1.3,0.7-1.8,1.1
				c-1.1,0.7-0.9,1.1,0.2,2.2l-0.5,0.6l-3.7-3.2l0.5-0.6c1.1,0.7,1.4,0.8,3,0l9.9-5.1l0.8,0.5c-1.3,3.5-2.6,7-3.8,10.4
				c-0.7,1.9-0.6,2.1,0.3,3.1l-0.5,0.6L56.7,181.5z M61.7,173.1c-1.4,0.7-2.7,1.4-4,2.1l2.4,2.1L61.7,173.1z"/>
			<path class="st1" d="M71,191c-0.4-0.2-2.1-1-3.7-1.5c0.2-0.3,0.4-0.6,0.6-1c-0.4,0-1,0-1.4,0c-0.6,0-0.9-0.1-1-0.2
				c-1.4-0.9-2.7-3.5-1-6c1.5-2.3,4.7-2.8,7.3-1.1c0.1,0.1,0.4,0.3,0.6,0.5l1.2-1.9c0.6-0.9,0.6-1-0.4-1.8l0.4-0.5
				c1.2,0.6,2.7,1.3,3.7,1.6c-0.4,0.6-0.8,1.2-1.3,2l-5,7.7c-0.6,0.9-0.5,1.1,0,1.5l0.3,0.3L71,191z M71.4,183.3
				c0.1-0.6-0.1-1.2-0.7-1.6c-0.5-0.3-1.9-0.7-3.4,1.7c-1.4,2.2-0.7,3.8,0,4.3c0.3,0.2,0.6,0.3,1.1,0.3L71.4,183.3z"/>
			<path class="st1" d="M77.1,194.6l-4.7-2.4l0.3-0.6c1,0.4,1.1,0.3,1.7-0.8l1.9-3.9c0.4-0.9,0.4-1-0.3-1.6l0.3-0.5
				c1.2,0.4,2.3,0.7,3.6,0.9c-0.3,0.6-0.7,1.4-1,1.9c1.4-0.8,2.4-1.2,3.1-0.8c0.7,0.3,0.9,1,0.6,1.6c-0.4,0.9-1.3,1.1-1.7,1.1
				c-0.3,0-0.4-0.2-0.5-0.4c-0.2-0.4-0.3-0.8-0.6-1c-0.3-0.1-0.8-0.1-1.5,0.4l-1.7,3.4c-0.5,1.1-0.4,1.2,0.8,2L77.1,194.6z"/>
			<path class="st1" d="M80.2,196l0.2-0.6c1.1,0.3,1.2,0.2,1.7-1.1l1.4-3.6c0.5-1.2,0.4-1.4-0.4-1.8l0.2-0.6
				c1.2,0.3,2.5,0.6,3.6,0.7c-0.3,0.8-0.6,1.5-0.9,2.3l-1.6,4c-0.5,1.3-0.5,1.4,0.6,2l-0.2,0.6L80.2,196z M86.2,187.3
				c-0.7-0.3-1.1-1.1-0.8-1.9c0.3-0.8,1.2-1.1,1.9-0.8c0.7,0.3,1.1,1.1,0.8,1.9C87.8,187.2,87,187.6,86.2,187.3z"/>
			<path class="st1" d="M92.8,200.6c-0.5-0.1-0.9-0.5-1.1-0.8c-0.2-0.3-0.3-0.6-0.3-0.9c-0.9,0.3-2,0.6-2.4,0.5
				c-1.6-0.5-2.2-2.1-1.9-3.2c0.3-1,0.9-1.3,2-1.4c1.3-0.1,2.9-0.1,3.5-0.4l0.2-0.8c0.3-1,0.1-1.7-0.7-1.9c-0.3-0.1-0.6,0-0.9,0.2
				c-0.3,0.2-0.5,0.6-0.8,1.1c-0.3,0.5-0.6,0.5-1,0.4c-0.5-0.1-1-0.8-0.8-1.3c0.1-0.4,0.4-0.5,0.9-0.7c1-0.3,2.3-0.5,3.5-0.5
				c0.8,0.2,1.4,0.6,1.8,1.1c0.6,0.8,0.6,1.7,0.4,2.7l-1,3.3c-0.3,0.9,0,1.2,0.3,1.3c0.2,0.1,0.4,0.1,0.6,0l0,0.7L92.8,200.6z
				 M92.4,195.3c-0.4,0.1-0.8,0.2-1.2,0.3c-0.7,0.1-1.1,0.4-1.3,1c-0.3,1.1,0.3,1.7,0.7,1.8c0.3,0.1,0.5,0.1,0.9-0.1
				C91.8,197.4,92.2,196.2,92.4,195.3z"/>
			<path class="st1" d="M102.2,202.4l0.1-0.7c0.9,0,0.9,0,1.1-1.4l0.6-3.4c0.2-1.4-0.4-2-1.1-2.1c-0.5-0.1-1,0-1.6,0.4l-0.8,4.8
				c-0.2,1.2-0.1,1.3,0.7,1.5l-0.1,0.7l-4.6-0.8l0.1-0.7c1.1,0,1.2,0,1.4-1.3l0.7-4.1c0.2-1.2,0-1.3-0.8-1.6l0.1-0.6
				c1.2,0,2.6,0,3.7-0.1c-0.1,0.3-0.2,1-0.3,1.4c0.4-0.2,0.9-0.4,1.4-0.6c0.6-0.3,1-0.4,1.6-0.3c1.6,0.3,2.4,1.6,2.1,3.6l-0.6,3.7
				c-0.2,1.2-0.1,1.3,0.8,1.6l-0.1,0.7L102.2,202.4z"/>
			<path class="st1" d="M115.4,203.8c-0.5,0-1-0.2-1.2-0.5c-0.3-0.2-0.4-0.5-0.5-0.8c-0.8,0.5-1.8,1.1-2.2,1.1
				c-1.7-0.1-2.7-1.5-2.6-2.7c0-1.1,0.5-1.5,1.6-1.9c1.2-0.4,2.8-0.8,3.3-1.2l0-0.9c0-1-0.3-1.6-1.2-1.7c-0.3,0-0.6,0.1-0.8,0.4
				c-0.2,0.3-0.4,0.7-0.5,1.3c-0.2,0.5-0.5,0.7-0.9,0.6c-0.5,0-1.2-0.5-1.1-1.1c0-0.4,0.3-0.6,0.7-0.9c0.9-0.6,2.1-1.1,3.3-1.3
				c0.8,0,1.5,0.2,2,0.7c0.8,0.6,1,1.5,1,2.5l-0.1,3.5c0,1,0.3,1.2,0.6,1.2c0.2,0,0.4,0,0.6-0.1l0.2,0.7L115.4,203.8z M113.8,198.7
				c-0.4,0.2-0.7,0.4-1.1,0.6c-0.6,0.3-1,0.6-1,1.3c0,1.1,0.7,1.5,1.2,1.6c0.3,0,0.6,0,0.9-0.3C113.7,200.9,113.8,199.6,113.8,198.7
				z"/>
			<path class="st1" d="M128.1,193.8c0-0.4,0.8-7.2,2.7-7.5c0.5-0.1,1.6-0.1,1.7,0.8c0.1,0.9,0.3,5.5,0.5,6.6c0-0.7,0.6-5,2-5.2
				c0.8-0.1,1.6,0.2,1.7,0.7c0.1,0.5-0.3,2.7,0.2,5.5s1.6,7.1,2.4,7c0.7-0.1,0.5-2.5,0.6-2.7c0,0,0,0,0,0c0.1,0,0.4,0.6,0.5,1.4
				c0.2,1.1,0.1,2.5-0.6,2.6c-3.4,0.5-4.6-4-5.3-8.3c-0.4-2.8-0.2-4.1-0.2-4.3c0,0,0,0,0,0c-0.4,0.1-1.1,5.5-0.8,7.5
				c0.1,0.7,0.3,1.3,0.4,1.9c0,0.2-0.1,0.3-0.3,0.4c-0.4,0.1-1-0.1-1.5-0.5c-0.4-0.3-0.8-1.4-1-2.8c-0.5-3-0.5-7.5-0.7-8.7
				c0-0.2-0.1-0.3-0.1-0.3c-0.7,0.1-2.3,9.9-1.6,14.1l0,0.2c0.1,0.7,0.2,1-0.2,1c-0.4,0.1-1.9-0.4-2-0.9c-0.1-0.5,0.1-2.4,0.2-4.9
				c-0.1,0-0.2,0-0.2,0.1c-1.9,0.3-3.6-1.3-3.9-3.5c-0.6-3.6,1.2-5.3,2.4-5.5C126,188.3,127.3,188.6,128.1,193.8z M126.6,196.6
				c0-1.5-0.1-3.1-0.4-4.9c-0.1-0.9-0.5-2.6-1.2-2.5s-1.3,2.4-0.9,5c0.4,2.2,1.5,2.6,2.2,2.5C126.3,196.8,126.5,196.7,126.6,196.6z"
				/>
			<path class="st1" d="M143.8,195.7c0.1,1.9,0.1,4.2-0.5,4.4c-1.7,0.5-2.7-0.6-3.2-2.1c-1.7-5.6-0.3-7.5,1.1-7.9
				c0.4-0.1,0.9-0.1,1.3,0.1c0.1-0.4,0.2-0.6,0.5-0.7c0.5-0.2,1.6,0.3,1.7,0.6c0.1,0.3,0.7,3.8,1.3,5.4c0.4,1.4,1,1.9,1.4,1.8
				c0.5-0.1,0.6-1.9,0.3-3.5c0-0.1,0-0.1,0.1-0.1c0.2-0.1,0.6,0,0.7,0.2c0.2,0.7,0.8,4.7-0.8,5.2
				C146.4,199.5,144.9,198.3,143.8,195.7z M142.2,197.8c0.3,1,0.5,1.3,0.8,1.2c0.4-0.1,0.2-3.5,0-5.4c-0.2-0.8-0.4-1.6-0.5-2.2
				c-0.2-0.4-0.4-0.6-0.7-0.5C140.9,191.1,141.3,194.8,142.2,197.8z"/>
			<path class="st1" d="M150.3,194.2c-0.6-1.5-1.2-4-1.4-4.5c-0.2-0.4-0.9-0.4-1.7-0.4c1,2.7,1.5,4.6,1.5,4.6s0,0.1-0.1,0.1
				c-0.2,0-0.7,0-0.8-0.2l0,0c0,0-0.4-1.8-1.5-4.5c-0.6,0-1.2-0.1-1.3-0.5c-0.1-0.4,0.3-0.9,0.8-1c0.4-0.1,0.8-0.1,0.9,0.2l0.2,0.6
				c1.3,0,3.7-0.3,4.1,0.6c0.3,0.6,1.2,4.2,1.7,5.2c0.4,0.9,0.7,1.2,0.9,1.1c1.1-0.5,0-4.2-0.1-4.6c0-0.2,0-0.2,0.1-0.3
				c0.2-0.1,0.7,0.2,0.8,0.5l0,0c0.5,1.4,1.1,4.5-0.6,5.3C151.9,197.1,150.9,195.6,150.3,194.2z"/>
			<path class="st1" d="M153.7,190.9c-1.6-3.3-0.7-5.4,1-6.3c1-0.5,2-0.3,2.4,0.5c0.6,1.1,0.6,2.9,0,3.2c-0.1,0.1-0.2,0-0.3-0.1
				c0,0,0-0.1,0-0.1c0.1-0.3,0-1.2-0.5-2.3c-0.2-0.5-0.7-0.8-0.9-0.7c-0.6,0.3-1.4,2,0.2,5.2c0.9,1.7,2.3,2.5,3.5,1.9
				c1.7-0.8,0.7-3.7,0.5-4.3c-0.1-0.2,0-0.3,0-0.3c0.2-0.1,0.7,0.1,0.9,0.5l0,0c0.5,1.4,1.3,4.5-0.9,5.6
				C157.3,194.8,155,193.5,153.7,190.9z"/>
			<path class="st1" d="M156,179c0.1-0.3,0.5-0.8,0.8-1c0.6-0.4,1.2-0.1,1.5,0.5c0.1,0.1,0.1,0.2,0,0.3c-0.1,0.4,0.5,1.6-0.3,2.1
				c-0.3,0.2-1.3,0.1-1.8-0.7C156,179.6,155.9,179.4,156,179z M163.9,190.7c-0.3,0.2-1.1,0.2-1.9,0c-0.6-0.2-1.6-1.5-2.5-3
				c-1-1.7-1.8-3.6-1.6-4c0.1-0.2,0.2-0.3,0.4-0.4c0.3-0.2,0.8-0.3,1.2-0.2c0.2,0.1,0.5,0.2,0.6,0.6c0.1,0.2,0.1,0.4,0.1,0.4
				s1.1,2.6,2,4.2c0.4,0.8,0.8,1.3,1,1.2c1-0.6,0.2-2.5-0.1-3.2c0,0,0-0.1,0.1-0.2c0.2-0.1,0.6-0.1,0.7,0.1c0.1,0.2,0.4,0.8,0.6,1.6
				C164.8,189,164.6,190.3,163.9,190.7z"/>
			<path class="st1" d="M167.1,184.4c0.7,1.8,1.3,4,0.8,4.3c-1.5,1-2.8,0.2-3.6-1.1c-3.3-4.9-2.5-7.1-1.2-7.9
				c0.4-0.2,0.8-0.4,1.3-0.2c0-0.4,0-0.6,0.3-0.8c0.5-0.3,1.6-0.2,1.8,0.1c0.2,0.2,1.8,3.4,2.8,4.8c0.8,1.2,1.6,1.5,1.8,1.4
				c0.4-0.3,0-2-0.7-3.4c0,0,0-0.1,0.1-0.2c0.2-0.1,0.6-0.2,0.7,0c0.4,0.6,2.1,4.3,0.7,5.2C170.7,187.3,169,186.6,167.1,184.4z
				 M166.2,186.9c0.6,0.9,0.9,1,1.1,0.9c0.4-0.3-0.8-3.4-1.5-5.2c-0.5-0.7-0.9-1.4-1.1-2c-0.3-0.3-0.6-0.5-0.8-0.3
				C163.1,180.9,164.5,184.3,166.2,186.9z"/>
			<path class="st1" d="M173.2,183.7c-0.8-0.1-2.4-1.9-3.8-3.6c-2.1-2.7-4.6-6.9-4.5-7.5c0-0.2,0.1-0.4,0.3-0.6
				c0.5-0.4,1.6-0.3,1.8,0c0.3,0.3,1,3.3,5,8.5c1.5,1.9,2.2,1.9,2.4,1.7c0.4-0.3,0-1.9-0.8-3.4c0,0,0-0.1,0.1-0.2
				c0.2-0.1,0.5-0.2,0.7,0c0.4,0.6,2.3,3.7,1,4.7C174.9,183.7,174,183.9,173.2,183.7z"/>
		</g>
	</g>
	<g>
		<g>
			<path class="st1" d="M122.4,149.4v-6.3c10.6-1.5,10.6-3.4,8.3-10.6c-1.7-5.1-4.4-12.7-6.9-19.5h-33c-1.9,5.2-4.2,11.7-5.9,16.9
				c-3.6,10.6,0.5,12,13.9,13.2v6.3H56.9v-6.3c10.6-1.4,13.4-2.9,19.1-17.1l35.2-87.4l8.1-1.5c10.8,29.4,22.3,59.5,33.3,87.8
				c6.3,15.7,7.8,16.9,18.8,18.3v6.3L122.4,149.4L122.4,149.4z M107.5,68.5c-4.9,12.2-9.6,23.5-13.9,35.9h26.9L107.5,68.5z"/>
		</g>
	</g>
	<path class="st1" d="M129,133.7C129,133.7,129,133.7,129,133.7C129,133.7,129,133.7,129,133.7C129,133.7,129,133.7,129,133.7z"/>
	<g>
		<path class="st1" d="M102.6,115.3c-6.9,0.7-13,4.1-17.3,9.5c0.4-3.8,0.9-7.6,1.3-11.5c0.1,0,0.1,0,0.2-0.1
			c5.6,1.1,17.3-2.2,18.5-8.5c0.1-0.4-0.2-0.8-0.6-0.8c-6.6,0-12.8,2.3-17.7,6.7c0.4-3.5,0.8-7,1.2-10.5c0-0.1,0.1-0.2,0.1-0.3
			c6.1-0.8,11.6-3.4,15.9-7.7c0.4-0.4,0.3-1.1-0.4-1.2c-4.2-0.8-8.2-0.1-11.9,2c-0.8,0.4-2.1,1.4-3.2,2.5c0.3-3.1,0.7-6.1,1-9.2
			c6.4-2,11.8-5.8,16-11c0.4-0.5-0.1-1.1-0.7-1.1C99,74.5,93.1,77,90.1,82c0.3-2.4,0.5-4.9,0.8-7.3c0.2,0,0.4-0.2,0.5-0.4
			c3.1-6.4,4.1-13.3,3.1-20.3c-0.1-0.6-0.9-0.8-1.2-0.3c-3,4-4.6,8.5-5,13.5c-0.1,1.5-0.5,6.3,1.3,7.4c-0.3,2.4-0.5,4.8-0.8,7.1
			c-0.7-2.5-1.7-4.9-2.9-7.2c-1.2-2.2-3.1-6.1-5.5-7c-0.5-0.2-1,0.2-0.9,0.8c0.4,3.9,1.2,7.6,2.8,11.2c1.3,2.9,3.8,5,6.1,7
			c-0.4,3.8-0.8,7.5-1.2,11.2c0,0.1-0.1,0.2-0.1,0.2c-1-5.9-3.2-11.5-8.1-15.4c-0.4-0.3-1.1-0.1-1.1,0.5c0,7.2,4.1,12.7,8.4,18.1
			c0.1,0.2,0.3,0.3,0.5,0.3c-0.3,2.4-0.5,4.9-0.8,7.3c-1.8-5.1-4.9-9.6-9.1-13.1c-0.4-0.4-1,0-1.1,0.5c-1.1,6.4,3.1,15.2,9.8,17.1
			c-0.4,3.6-0.8,7.3-1.2,10.9c-1.2-6.4-5.6-11.8-10.4-16.1c-0.4-0.4-1.1,0-1.1,0.5c-0.9,8,4.9,13.5,10.5,18.2
			c0.1,0.1,0.2,0.2,0.4,0.2c0.1,0,0.2,0.1,0.3,0c-0.3,3.1-0.7,6.2-1,9.3c-1.9-5.2-6.4-8.8-12.1-9.4c-0.6-0.1-0.9,0.5-0.7,1
			c2.2,5.8,6.6,10.2,12.3,12.5c-0.2,1.6-0.4,3.1-0.5,4.7c-0.1,0.9,1.3,1,1.4,0.1c0.2-1.6,0.4-3.1,0.5-4.7c6.1-1,11.3-4.4,14.7-9.5
			c0.3-0.4,0.1-1.1-0.5-1.1c-5.6-0.6-10.8,1.9-13.7,6.4c0.3-3,0.7-6.1,1-9.1c7.5-0.8,15.1-3.5,18.3-10.9
			C103.6,115.8,103.1,115.3,102.6,115.3z"/>
		<path class="st1" d="M138.3,84.2c-0.2,5.3-1.8,10.3-4.5,14.8c0.4-2.5,0.8-4.9,1.4-7.3c0.1-0.2-0.3-0.3-0.4-0.1
			c-0.6,2.3-1,4.7-1.4,7.1C132.1,93.2,134.4,88,138.3,84.2z"/>
		<path class="st1" d="M120.8,83.9c-1.6-2.7-2.5-5.8-2.8-8.9c3.9,4.1,6.6,8.9,8.1,14.4c-0.8-1.3-1.6-2.6-2.4-4
			c-0.1-0.2-0.5,0-0.3,0.2c0.9,1.6,1.8,3.2,2.8,4.8c0,0,0.1,0.1,0.1,0.1c0,0,0,0,0,0c0,0-0.1,0-0.1,0.1
			C125.9,90.9,121.2,84.5,120.8,83.9z"/>
		<path class="st1" d="M123.6,98.5c-2.6-1.3-4.9-3.3-6.9-5.3c2.4,0.1,5.8,1.8,7.3,2.5c2.7,1.2,5.2,2.9,7.5,4.7c0,0-0.1,0-0.1,0
			c-1.7-0.7-3.3-1.5-4.9-2.5c-0.2-0.1-0.4,0.2-0.2,0.4c1.2,0.8,2.5,1.4,3.8,2C127.9,100.1,125.8,99.6,123.6,98.5z"/>
		<path class="st1" d="M156.9,107.3c1.4,4.5-4,12.1-8,14.8c1.4-2.2,2.8-4.5,4.3-6.7c0.1-0.2-0.2-0.4-0.4-0.2
			c-1.4,2.3-2.9,4.5-4.3,6.8C149.5,116.2,152.4,111.1,156.9,107.3z"/>
		<path class="st1" d="M140.8,107.1c0.3-1.5,1-2.8,1.7-4.1c1.2-2.2,3-3.9,5.1-5.2c-0.9,5-3.1,9.5-6.5,13.2c0.8-2.4,1.9-4.6,3.3-6.6
			c0.1-0.2-0.2-0.4-0.4-0.2c-1.4,2-2.5,4.2-3.3,6.5C140.7,109.4,140.6,107.7,140.8,107.1z"/>
		<path class="st1" d="M136.5,111.5c-1.2-0.6-2.3-1.2-3.5-1.9c-0.2-0.1-0.4,0.2-0.2,0.4c1.7,0.9,3.4,1.9,5.1,2.8c0,0,0,0,0,0
			c-4.9-1.2-9.7-2.9-13.3-6.6C129.3,106.6,133.1,108.7,136.5,111.5z"/>
		<path class="st1" d="M131,117.8c5.6,0.3,10.8,2.3,15.3,5.7c0,0,0,0,0.1,0c-2.7-0.5-6-1.2-8.1-3c-0.2-0.2-0.5,0.1-0.3,0.3
			c1.9,1.7,5,2.5,7.6,3C140.5,125.2,134,122,131,117.8z"/>
		<path class="st1" d="M136.4,129.4c5.6,0.5,11.3,1.9,15.6,5.5c-2.1-0.6-4.1-1.4-5.9-2.5c-0.2-0.1-0.4,0.2-0.2,0.4
			c1.8,1,3.7,1.8,5.7,2.4C146,135,140.1,134.1,136.4,129.4z"/>
		<path class="st1" d="M146.2,145.1c4.5-2.3,9.6-1.8,13.6,1.1c-1.8-0.2-3.6-0.6-5.3-1.3c-0.2-0.1-0.4,0.3-0.2,0.4c2,0.7,4,1.2,6,1.4
			c0,0,0.1,0,0.1,0.1C155.7,148,150.7,147.4,146.2,145.1z"/>
		<path class="st1" d="M167.3,131.9c0.1,4.8-1.4,9.4-4.4,13.2c0.4-2.1,0.6-4.3,0.5-6.4c0-0.3-0.4-0.2-0.4,0c0.1,2.2-0.1,4.4-0.5,6.6
			C161.3,140.2,163.1,135.1,167.3,131.9z"/>
		<path class="st1" d="M156.5,133.2c1.4-1.5,2.4-3.1,3-4.6c0.1-0.2-0.3-0.1-0.3,0.1c-0.6,1.5-1.6,3-3,4.6c1.5-3.7,4.6-7.6,9-11.3
			C164.7,125.5,160.9,129.5,156.5,133.2z"/>
	</g>
	<rect x="41.8" y="129.4" class="st2" width="12.2" height="0.4"/>
	<text transform="matrix(1 0 0 1 70.9625 167.217)" class="st3 st4 st5 st6">UX DESIGNER</text>
</g>
</svg>
